<svg width="21" height="24" viewBox="0 0 21 24" fill="none" xmlns="http://www.w3.org/2000/svg">
<path d="M10.1408 24L10.1408 23.5H10.1408L10.1408 24ZM0 18.5577L-0.499943 18.5502L-0.502278 18.705L-0.416664 18.8341L0 18.5577ZM20.2817 18.5577L20.6984 18.8341L20.784 18.705L20.7816 18.5502L20.2817 18.5577ZM10.1408 0.5C12.6703 0.5 14.7113 2.54093 14.7113 5.07042H15.7113C15.7113 1.98865 13.2226 -0.5 10.1408 -0.5V0.5ZM14.7113 5.07042C14.7113 7.59991 12.6703 9.64085 10.1408 9.64085V10.6408C13.2226 10.6408 15.7113 8.1522 15.7113 5.07042H14.7113ZM10.1408 9.64085C7.61134 9.64085 5.57041 7.59991 5.57041 5.07042H4.57041C4.57041 8.1522 7.05906 10.6408 10.1408 10.6408V9.64085ZM5.57041 5.07042C5.57041 2.54093 7.61134 0.5 10.1408 0.5V-0.5C7.05906 -0.5 4.57041 1.98865 4.57041 5.07042H5.57041ZM10.1408 23.5C6.22971 23.5 2.57865 21.5406 0.416664 18.2813L-0.416664 18.8341C1.9306 22.3727 5.89454 24.5 10.1408 24.5L10.1408 23.5ZM0.499943 18.5653C0.509912 17.904 0.844894 17.2784 1.47245 16.6902C2.10211 16.1002 2.99222 15.5826 4.01476 15.1549C6.06188 14.2987 8.51897 13.8521 10.1408 13.8521V12.8521C8.38244 12.8521 5.79445 13.3266 3.6289 14.2324C2.5451 14.6857 1.53697 15.2593 0.788645 15.9606C0.0382048 16.6638 -0.48456 17.5297 -0.499943 18.5502L0.499943 18.5653ZM10.1408 13.8521C11.7541 13.8521 14.2113 14.2986 16.2608 15.155C17.2845 15.5827 18.1762 16.1004 18.8072 16.6906C19.4362 17.2789 19.7718 17.9045 19.7817 18.5653L20.7816 18.5502C20.7662 17.5293 20.242 16.6633 19.4903 15.9603C18.7407 15.2591 17.731 14.6855 16.6463 14.2323C14.4789 13.3267 11.891 12.8521 10.1408 12.8521V13.8521ZM19.865 18.2813C17.703 21.5406 14.052 23.5 10.1408 23.5L10.1408 24.5C14.3872 24.5 18.3511 22.3727 20.6984 18.8341L19.865 18.2813Z" fill="#9B9B9B"/>
</svg>
