<svg width="24" height="24" viewBox="0 0 24 24" fill="none" xmlns="http://www.w3.org/2000/svg">
<path fill-rule="evenodd" clip-rule="evenodd" d="M7.19976 19.1993C5.8798 19.1993 4.81184 20.2793 4.81184 21.5992C4.81184 22.9192 5.8798 23.9991 7.19976 23.9991C8.51971 23.9991 9.59967 22.9192 9.59967 21.5992C9.59967 20.2793 8.51971 19.1993 7.19976 19.1993ZM0 0V2.39991H2.39991L6.71976 11.5076L5.09982 14.4475C4.90783 14.7835 4.79983 15.1795 4.79983 15.5994C4.79983 16.9194 5.87979 17.9994 7.19974 17.9994H21.5992V15.5994H7.70373C7.53573 15.5994 7.40374 15.4674 7.40374 15.2995L7.43974 15.1555L8.5197 13.1995H17.4594C18.3593 13.1995 19.1513 12.7075 19.5593 11.9636L23.8551 4.17585C24.0565 3.80332 24.0473 3.35236 23.8309 2.98836C23.6145 2.62436 23.2227 2.40089 22.7992 2.39991H5.05182L3.92386 0H0ZM19.1993 19.1993C17.8794 19.1993 16.8114 20.2793 16.8114 21.5992C16.8114 22.9192 17.8794 23.9991 19.1993 23.9991C20.5193 23.9991 21.5992 22.9192 21.5992 21.5992C21.5992 20.2793 20.5193 19.1993 19.1993 19.1993Z" fill="#DB3022"/>
</svg>
